<svg width="168" height="40" viewBox="0 0 170 43" fill="none" xmlns="http://www.w3.org/2000/svg">
<path d="M169 5.60121L163.581 3.38443L162.819 12.4295L160.221 5.56481L154.888 8.41884L152.115 11.7927L148.025 8.16097L147.705 4.52922L145.998 2.19554L143.326 3.91658L141.583 1L137.668 2.55544L136.564 1L133.22 5.66683L130.73 3.52797L128.453 6.25537L126.815 7.65035L124.751 5.18543L122.367 7.71341L119.877 7.84465L118.346 11.5738L114.789 10.7961L112.405 14.0044L109.2 21.3945L107.456 15.7546L104.96 19.1921L100.017 13.747L93.0463 24.1506L92.2624 27.8798L89.0624 34.4281L87.3876 39.8101L85.1105 32.0606L82.7642 31.5746L80.9134 33.9759L77.6763 31.6766L73.8988 36.2599L68.7737 40.0275H65.5366L64.4327 37.3683L61.1579 41C61.1579 41 60.3048 37.6943 59.5208 37.6943C58.7368 37.6943 57.1368 38.9873 57.1368 38.3408C57.1368 37.6943 54.5769 33.8339 54.5769 33.8339L50.8066 37.2078L47.4627 36.9504L44.0867 40.0957L40.2096 39.3179L38.6793 40.616L35.5485 36.6926L31.5646 34.8449L26.9035 36.3034L24.8401 31.5392L20.3545 33.0952L16.9774 28.1325L14.594 29.7854L10.5724 28.0351L7.26105 30.9912L6.08735 32.8727L1.00001 29.1435" stroke="#00C805"/>
</svg>
